<svg width="128" height="96" xmlns="http://www.w3.org/2000/svg" xmlns:xlink="http://www.w3.org/1999/xlink" overflow="hidden"><g><rect x="0" y="0" width="128" height="96" fill="#FFFFFF"/><rect x="43.5001" y="36.7501" width="31.75" height="30.75" fill="#1163AE"/><path d="M75.2501 36.7501 85.5 26.5001 85.5 57.2501 75.2501 67.5Z" fill="#0E508C" fill-rule="evenodd"/><path d="M43.5001 36.7501 53.75 26.5001 85.5 26.5001 75.2501 36.7501Z" fill="#4082BE" fill-rule="evenodd"/><path d="M43.5001 36.7501 53.75 26.5001 85.5 26.5001 85.5 57.2501 75.2501 67.5 43.5001 67.5ZM43.5001 36.7501 75.2501 36.7501 85.5 26.5001M75.2501 36.7501 75.2501 67.5" stroke="#9CCBF6" stroke-width="0.666667" stroke-miterlimit="8" fill="none" fill-rule="evenodd"/><path d="M54.5001 36.5001 54.5002 67.1312" stroke="#87BAE9" stroke-width="0.666667" stroke-miterlimit="8" fill="none" fill-rule="evenodd"/><path d="M66.5001 36.5001 66.5002 67.1312" stroke="#87BAE9" stroke-width="0.666667" stroke-miterlimit="8" fill="none" fill-rule="evenodd"/><path d="M43.5001 57.5001 74.2121 57.5002" stroke="#87BAE9" stroke-width="0.666667" stroke-miterlimit="8" fill="none" fill-rule="evenodd"/><path d="M43.5001 47.5001 74.2121 48.0786" stroke="#87BAE9" stroke-width="0.666667" stroke-miterlimit="8" fill="none" fill-rule="evenodd"/><path d="M0 0 10.3117 9.52966" stroke="#87BAE9" stroke-width="0.666667" stroke-miterlimit="8" fill="none" fill-rule="evenodd" transform="matrix(1 0 0 -1 74.5001 48.0297)"/><path d="M0 0 10.7119 9.78184" stroke="#87BAE9" stroke-width="0.666667" stroke-miterlimit="8" fill="none" fill-rule="evenodd" transform="matrix(1 0 0 -1 74.5001 57.2819)"/><path d="M78.5001 33.5001 78.5002 64.1312" stroke="#87BAE9" stroke-width="0.666667" stroke-miterlimit="8" fill="none" fill-rule="evenodd"/><path d="M47.5001 33.5001 78.0029 33.5002" stroke="#87BAE9" stroke-width="0.666667" stroke-miterlimit="8" fill="none" fill-rule="evenodd"/><path d="M82.5001 29.5001 82.5002 59.8429" stroke="#87BAE9" stroke-width="0.666667" stroke-miterlimit="8" fill="none" fill-rule="evenodd"/><path d="M51.5001 29.5001 82.0029 29.5002" stroke="#87BAE9" stroke-width="0.666667" stroke-miterlimit="8" fill="none" fill-rule="evenodd"/><path d="M0 0 11.1456 10.2878" stroke="#87BAE9" stroke-width="0.666667" stroke-miterlimit="8" fill="none" fill-rule="evenodd" transform="matrix(-1 0 0 1 76.6457 26.5001)"/><path d="M0 0 10.6582 11.2134" stroke="#87BAE9" stroke-width="0.666667" stroke-miterlimit="8" fill="none" fill-rule="evenodd" transform="matrix(-1 0 0 1 65.1582 25.5001)"/></g></svg>