<?xml version="1.0" encoding="UTF-8"?>
<!DOCTYPE svg PUBLIC "-//W3C//DTD SVG 1.1//EN" "http://www.w3.org/Graphics/SVG/1.1/DTD/svg11.dtd">
<!-- Creator: CorelDRAW -->
<svg xmlns="http://www.w3.org/2000/svg" xml:space="preserve" width="210mm" height="297mm" version="1.1" style="shape-rendering:geometricPrecision; text-rendering:geometricPrecision; image-rendering:optimizeQuality; fill-rule:evenodd; clip-rule:evenodd"
viewBox="0 0 21000 29700"
 xmlns:xlink="http://www.w3.org/1999/xlink"
 xmlns:xodm="http://www.corel.com/coreldraw/odm/2003">
 <defs>
  <style type="text/css">
   <![CDATA[
    .str0 {stroke:#87BAE9;stroke-width:17.64;stroke-miterlimit:22.9256}
    .str1 {stroke:#9CCBF6;stroke-width:17.64;stroke-miterlimit:22.9256}
    .fil3 {fill:none}
    .fil1 {fill:#0E508C}
    .fil0 {fill:#1163AE}
    .fil2 {fill:#4082BE}
   ]]>
  </style>
 </defs>
 <g id="Слой_x0020_1">
  <metadata id="CorelCorpID_0Corel-Layer"/>
  <polygon class="fil0" points="9470.16,14976.52 10170.82,14549.13 10598.2,15249.79 9897.55,15677.17 "/>
  <polygon class="fil1" points="10170.82,14549.13 10261.91,14173.12 10689.29,14873.78 10598.2,15249.79 "/>
  <polygon class="fil2" points="9470.16,14976.52 9561.25,14600.51 10261.91,14173.12 10170.82,14549.13 "/>
  <line class="fil3 str0" x1="9720.65" y1="14822.37" x2="10142.69" y2= "15514.26" />
  <line class="fil3 str0" x1="9979.88" y1="14677.63" x2="10401.92" y2= "15369.51" />
  <line class="fil3 str0" x1="9764.66" y1="15451.37" x2="10458.38" y2= "15028.22" />
  <line class="fil3 str0" x1="9617.61" y1="15210.28" x2="10319.29" y2= "14800.19" />
  <line class="fil3 str0" x1="10317.13" y1="14808.25" x2="10418.75" y2= "14450.92" />
  <line class="fil3 str0" x1="10458.48" y1="15030.15" x2="10565.66" y2= "14661.61" />
  <line class="fil3 str0" x1="10199.92" y1="14428.06" x2="10621.96" y2= "15119.95" />
  <line class="fil3 str0" x1="9509.16" y1="14845.44" x2="10198.15" y2= "14425.17" />
  <line class="fil3 str0" x1="10234.61" y1="14282.97" x2="10652.68" y2= "14968.35" />
  <line class="fil3 str0" x1="9545.62" y1="14703.24" x2="10234.61" y2= "14282.97" />
  <line class="fil3 str0" x1="10084.77" y1="14289.54" x2="9974.76" y2= "14675.48" />
  <line class="fil3 str0" x1="9815.11" y1="14432.28" x2="9728.87" y2= "14832.41" />
  <path class="fil3 str1" d="M9470.16 14976.52l91.09 -376.01 700.66 -427.39 427.38 700.66 -91.09 376.01 -700.65 427.38 -427.39 -700.65zm0 0l700.66 -427.39 91.09 -376.01m-91.09 376.01l427.38 700.66"/>
  <polygon class="fil0" points="10431.36,14783.96 11231.83,14602.8 11412.99,15403.28 10612.52,15584.43 "/>
  <polygon class="fil1" points="11231.83,14602.8 11438.27,14275.59 11619.43,15076.07 11412.99,15403.28 "/>
  <polygon class="fil2" points="10431.36,14783.96 10637.8,14456.75 11438.27,14275.59 11231.83,14602.8 "/>
  <line class="fil3 str0" x1="10717.96" y1="14717.91" x2="10896.85" y2= "15508.37" />
  <line class="fil3 str0" x1="11009.85" y1="14663.56" x2="11188.74" y2= "15454.02" />
  <line class="fil3 str0" x1="10558.73" y1="15328" x2="11351.28" y2= "15148.64" />
  <line class="fil3 str0" x1="10496.4" y1="15052.57" x2="11292.32" y2= "14888.13" />
  <line class="fil3 str0" x1="11287.69" y1="14895.08" x2="11498.14" y2= "14588.94" />
  <line class="fil3 str0" x1="11350.75" y1="15150.51" x2="11570.06" y2= "14835.52" />
  <line class="fil3 str0" x1="11298.08" y1="14497.37" x2="11476.97" y2= "15287.83" />
  <line class="fil3 str0" x1="10510.19" y1="14672.2" x2="11297.34" y2= "14494.06" />
  <line class="fil3 str0" x1="11377.31" y1="14370.96" x2="11554.52" y2= "15153.98" />
  <line class="fil3 str0" x1="10590.16" y1="14549.1" x2="11377.31" y2= "14370.96" />
  <line class="fil3 str0" x1="11233.22" y1="14329.31" x2="11005.69" y2= "14659.89" />
  <line class="fil3 str0" x1="10932.1" y1="14378.43" x2="10722.54" y2= "14730.04" />
  <path class="fil3 str1" d="M10431.36 14783.96l206.44 -327.21 800.47 -181.16 181.16 800.48 -206.44 327.21 -800.47 181.15 -181.16 -800.47zm0 0l800.47 -181.16 206.44 -327.21m-206.44 327.21l181.16 800.48"/>
 </g>
</svg>
