<svg width="128" height="96" xmlns="http://www.w3.org/2000/svg" xmlns:xlink="http://www.w3.org/1999/xlink" overflow="hidden"><g><rect x="0" y="0" width="128" height="96" fill="#FFFFFF"/><path d="M25.0771 52.7818 51.5584 36.6287 67.7115 63.1102 41.2302 79.2632Z" fill="#1163AE" fill-rule="evenodd"/><path d="M51.5584 36.6287 55.0012 22.4173 71.1543 48.8987 67.7115 63.1102Z" fill="#0E508C" fill-rule="evenodd"/><path d="M25.0771 52.7818 28.5198 38.5704 55.0012 22.4173 51.5584 36.6287Z" fill="#4082BE" fill-rule="evenodd"/><path d="M25.0771 52.7818 28.5198 38.5704 55.0012 22.4173 71.1543 48.8987 67.7115 63.1102 41.2302 79.2632ZM25.0771 52.7818 51.5584 36.6287 55.0012 22.4173M51.5584 36.6287 67.7115 63.1102" stroke="#9CCBF6" stroke-width="0.666667" stroke-miterlimit="8" fill="none" fill-rule="evenodd"/><path d="M34.5441 46.9558 50.4953 73.1059" stroke="#87BAE9" stroke-width="0.666667" stroke-miterlimit="8" fill="none" fill-rule="evenodd"/><path d="M44.342 41.4851 60.2932 67.6352" stroke="#87BAE9" stroke-width="0.666667" stroke-miterlimit="8" fill="none" fill-rule="evenodd"/><path d="M36.2078 70.7288 62.427 54.7357" stroke="#87BAE9" stroke-width="0.666667" stroke-miterlimit="8" fill="none" fill-rule="evenodd"/><path d="M30.6497 61.6168 57.1702 46.1175" stroke="#87BAE9" stroke-width="0.666667" stroke-miterlimit="8" fill="none" fill-rule="evenodd"/><path d="M0 0 10.3117 9.52966" stroke="#87BAE9" stroke-width="0.666667" stroke-miterlimit="8" fill="none" fill-rule="evenodd" transform="matrix(0.853711 -0.520747 -0.520747 -0.853711 57.0883 46.4222)"/><path d="M0 0 10.7119 9.78184" stroke="#87BAE9" stroke-width="0.666667" stroke-miterlimit="8" fill="none" fill-rule="evenodd" transform="matrix(0.853711 -0.520747 -0.520747 -0.853711 62.4307 54.8088)"/><path d="M52.6584 32.0528 68.6095 58.2029" stroke="#87BAE9" stroke-width="0.666667" stroke-miterlimit="8" fill="none" fill-rule="evenodd"/><path d="M26.5509 47.8275 52.5916 31.9433" stroke="#87BAE9" stroke-width="0.666667" stroke-miterlimit="8" fill="none" fill-rule="evenodd"/><path d="M53.9697 26.5689 69.7707 52.4729" stroke="#87BAE9" stroke-width="0.666667" stroke-miterlimit="8" fill="none" fill-rule="evenodd"/><path d="M27.929 42.4531 53.9697 26.5689" stroke="#87BAE9" stroke-width="0.666667" stroke-miterlimit="8" fill="none" fill-rule="evenodd"/><path d="M0 0 11.1456 10.2878" stroke="#87BAE9" stroke-width="0.666667" stroke-miterlimit="8" fill="none" fill-rule="evenodd" transform="matrix(-0.853711 0.520747 0.520747 0.853711 48.3063 26.8171)"/><path d="M0 0 10.6582 11.2134" stroke="#87BAE9" stroke-width="0.666667" stroke-miterlimit="8" fill="none" fill-rule="evenodd" transform="matrix(-0.853711 0.520747 0.520747 0.853711 38.1145 32.212)"/><path d="M61.4057 45.5039 91.6597 38.6571 98.5066 68.9112 68.2526 75.758Z" fill="#1163AE" fill-rule="evenodd"/><path d="M91.6597 38.6571 99.4621 26.2902 106.309 56.5443 98.5066 68.9112Z" fill="#0E508C" fill-rule="evenodd"/><path d="M61.4057 45.5039 69.2081 33.137 99.4621 26.2902 91.6597 38.6571Z" fill="#4082BE" fill-rule="evenodd"/><path d="M61.4057 45.5039 69.2081 33.137 99.4621 26.2902 106.309 56.5443 98.5066 68.9112 68.2526 75.758ZM61.4057 45.5039 91.6597 38.6571 99.4621 26.2902M91.6597 38.6571 98.5066 68.9112" stroke="#9CCBF6" stroke-width="0.666667" stroke-miterlimit="8" fill="none" fill-rule="evenodd"/><path d="M72.2379 43.0075 78.9992 72.8831" stroke="#87BAE9" stroke-width="0.666667" stroke-miterlimit="8" fill="none" fill-rule="evenodd"/><path d="M83.27 40.9535 90.0313 70.8291" stroke="#87BAE9" stroke-width="0.666667" stroke-miterlimit="8" fill="none" fill-rule="evenodd"/><path d="M66.2197 66.0662 96.1742 59.2872" stroke="#87BAE9" stroke-width="0.666667" stroke-miterlimit="8" fill="none" fill-rule="evenodd"/><path d="M63.8639 55.6561 93.9461 49.4413" stroke="#87BAE9" stroke-width="0.666667" stroke-miterlimit="8" fill="none" fill-rule="evenodd"/><path d="M0 0 10.3117 9.52966" stroke="#87BAE9" stroke-width="0.666667" stroke-miterlimit="8" fill="none" fill-rule="evenodd" transform="matrix(0.975335 -0.22073 -0.22073 -0.975335 93.7711 49.7039)"/><path d="M0 0 10.7119 9.78184" stroke="#87BAE9" stroke-width="0.666667" stroke-miterlimit="8" fill="none" fill-rule="evenodd" transform="matrix(0.975335 -0.22073 -0.22073 -0.975335 96.1545 59.3578)"/><path d="M94.1638 34.6722 100.925 64.5479" stroke="#87BAE9" stroke-width="0.666667" stroke-miterlimit="8" fill="none" fill-rule="evenodd"/><path d="M64.385 41.2799 94.1355 34.5471" stroke="#87BAE9" stroke-width="0.666667" stroke-miterlimit="8" fill="none" fill-rule="evenodd"/><path d="M97.1583 29.8945 103.856 59.489" stroke="#87BAE9" stroke-width="0.666667" stroke-miterlimit="8" fill="none" fill-rule="evenodd"/><path d="M67.4078 36.6274 97.1583 29.8946" stroke="#87BAE9" stroke-width="0.666667" stroke-miterlimit="8" fill="none" fill-rule="evenodd"/><path d="M0 0 11.1456 10.2878" stroke="#87BAE9" stroke-width="0.666667" stroke-miterlimit="8" fill="none" fill-rule="evenodd" transform="matrix(-0.975335 0.22073 0.22073 0.975335 91.7124 28.3205)"/><path d="M0 0 10.6582 11.2134" stroke="#87BAE9" stroke-width="0.666667" stroke-miterlimit="8" fill="none" fill-rule="evenodd" transform="matrix(-0.975335 0.22073 0.22073 0.975335 80.3312 30.1768)"/></g></svg>